# xmcd
#
# Track frame offsets:
#	150
#	19070
#	32895
#	58370
#	71989
#	88497
#	112791
#	138835
#	152447
#	165387
#	174884
#	188046
#	202332
#	213898
#	229956
#	250307
#
# Disc length: 3489 seconds
#
# Revision: 1
# Processed by: cddbd v1.5.2PL0 Copyright (c) Steve Scherf et al.
# Submitted via: audiograbber 1.83.01
#
DISCID=e10d9f10
DTITLE=Various Artist - Blues Heroes
DYEAR=2010
DGENRE=Blues
TTITLE0=B.B. King - The Thrill Is Gone
TTITLE1=Albert Collins - Frosty
TTITLE2=Santana - Blues Latino
TTITLE3=John Lee Hooker - One Bourbon, One Scotch, One Beer
TTITLE4=The Robert Cray Band - I Guess I Showed Her
TTITLE5=Ten Years After - I Can't Keep From Crying, Sometimes
TTITLE6=The Allman Brothers Band - Jelly Jelly
TTITLE7=Buddy Guy - My Time After AWhile
TTITLE8=Bo Diddley - Bo Diddley
TTITLE9=Chuck Berry - Still Got The Blues
TTITLE10=Howlin' Wolf - Evil (Is Ging On)
TTITLE11=Steve Early - Continental Trailways Blues
TTITLE12=Sonny Boy Williamson - Don't Start Me To Talkin'
TTITLE13=Roy Buchanan - Sweet Dreams
TTITLE14=Harvey Mason, fest. B.James,Lee Ritenour - West Coast Blues
TTITLE15=T-Bone Walker - Cold Hearted Woman
EXTD=
EXTT0=
EXTT1=
EXTT2=
EXTT3=
EXTT4=
EXTT5=
EXTT6=
EXTT7=
EXTT8=
EXTT9=
EXTT10=
EXTT11=
EXTT12=
EXTT13=
EXTT14=
EXTT15=
PLAYORDER=
